# This file uses centimeters as units for non-parametric coordinates.

mtllib Arcade Button_Interior.mtl
g default
v 0.071329 -0.015083 -0.023176
v 0.060676 -0.015083 -0.044084
v 0.044084 -0.015083 -0.060676
v 0.023176 -0.015083 -0.071329
v 0.000000 -0.015083 -0.075000
v -0.023176 -0.015083 -0.071329
v -0.044084 -0.015083 -0.060676
v -0.060676 -0.015083 -0.044084
v -0.071329 -0.015083 -0.023176
v -0.075000 -0.015083 0.000000
v -0.071329 -0.015083 0.023176
v -0.060676 -0.015083 0.044084
v -0.044084 -0.015083 0.060676
v -0.023176 -0.015083 0.071329
v -0.000000 -0.015083 0.075000
v 0.023176 -0.015083 0.071329
v 0.044084 -0.015083 0.060676
v 0.060676 -0.015083 0.044084
v 0.071329 -0.015083 0.023176
v 0.075000 -0.015083 0.000000
v 0.000000 -0.015083 0.000000
v 0.000000 0.034917 0.000000
v 0.071329 0.024918 -0.023176
v 0.061701 0.034917 -0.020048
v 0.060676 0.024918 -0.044084
v 0.052486 0.034917 -0.038133
v 0.044084 0.024918 -0.060676
v 0.038133 0.034917 -0.052486
v 0.023176 0.024918 -0.071329
v 0.020048 0.034917 -0.061701
v 0.000000 0.024918 -0.075000
v 0.000000 0.034917 -0.064876
v -0.023176 0.024918 -0.071329
v -0.020048 0.034917 -0.061701
v -0.044084 0.024918 -0.060676
v -0.038133 0.034917 -0.052486
v -0.060676 0.024918 -0.044084
v -0.052486 0.034917 -0.038133
v -0.071329 0.024918 -0.023176
v -0.061701 0.034917 -0.020048
v -0.075000 0.024918 0.000000
v -0.064876 0.034917 0.000000
v -0.071329 0.024918 0.023176
v -0.061701 0.034917 0.020048
v -0.060676 0.024918 0.044084
v -0.052486 0.034917 0.038133
v -0.044084 0.024918 0.060676
v -0.038133 0.034917 0.052486
v -0.023176 0.024918 0.071329
v -0.020048 0.034917 0.061701
v -0.000000 0.024918 0.075000
v -0.000000 0.034917 0.064876
v 0.023176 0.024918 0.071329
v 0.020048 0.034917 0.061701
v 0.044084 0.024918 0.060676
v 0.038133 0.034917 0.052486
v 0.060676 0.024918 0.044084
v 0.052486 0.034917 0.038133
v 0.071329 0.024918 0.023176
v 0.061701 0.034917 0.020048
v 0.075000 0.024918 0.000000
v 0.064876 0.034917 -0.000000
vt 0.831363 0.630727
vt 0.831363 0.561044
vt 0.964682 0.561044
vt 0.964682 0.630727
vt 0.831363 0.505743
vt 0.964682 0.505743
vt 0.998008 0.641154
vt 0.998008 0.580877
vt 0.831363 0.707971
vt 0.964682 0.707971
vt 0.998008 0.533040
vt 0.998008 0.707971
vt 0.831363 0.785215
vt 0.964682 0.785215
vt 0.998008 0.774789
vt 0.831363 0.854898
vt 0.964682 0.854898
vt 0.998008 0.835066
vt 0.831363 0.910199
vt 0.964682 0.910199
vt 0.658583 0.854898
vt 0.658583 0.785215
vt 0.791902 0.785215
vt 0.791902 0.854898
vt 0.658583 0.707971
vt 0.791902 0.707971
vt 0.825228 0.835066
vt 0.825228 0.774789
vt 0.658583 0.910199
vt 0.791902 0.910199
vt 0.658583 0.630727
vt 0.791902 0.630727
vt 0.825228 0.707971
vt 0.658583 0.561044
vt 0.791902 0.561044
vt 0.825228 0.641153
vt 0.658583 0.505743
vt 0.791902 0.505743
vt 0.825228 0.580876
vt 0.454187 0.104857
vt 0.489693 0.174540
vt 0.251960 0.251784
vt 0.501927 0.251784
vt 0.398887 0.049556
vt 0.489693 0.329028
vt 0.329204 0.014051
vt 0.454187 0.398711
vt 0.251960 0.001817
vt 0.398887 0.454012
vt 0.174715 0.014051
vt 0.329204 0.489517
vt 0.105032 0.049556
vt 0.251960 0.501752
vt 0.049732 0.104857
vt 0.174715 0.489517
vt 0.014226 0.174540
vt 0.105032 0.454012
vt 0.001992 0.251784
vt 0.049732 0.398711
vt 0.014226 0.329028
vt 0.598046 0.426715
vt 0.578214 0.454012
vt 0.522913 0.398711
vt 0.550210 0.378879
vt 0.658323 0.457428
vt 0.647897 0.489517
vt 0.725141 0.251784
vt 0.725141 0.468011
vt 0.725141 0.501752
vt 0.519497 0.318602
vt 0.791959 0.457428
vt 0.802385 0.489517
vt 0.508914 0.251784
vt 0.852236 0.426715
vt 0.872068 0.454012
vt 0.519497 0.184967
vt 0.550210 0.124690
vt 0.900072 0.378879
vt 0.598046 0.076853
vt 0.930785 0.318602
vt 0.522913 0.104857
vt 0.578214 0.049556
vt 0.658323 0.046141
vt 0.941367 0.251784
vt 0.647897 0.014051
vt 0.725141 0.035558
vt 0.930784 0.184967
vt 0.725141 0.001817
vt 0.791959 0.046141
vt 0.900072 0.124690
vt 0.802385 0.014051
vt 0.852235 0.076853
vt 0.872068 0.049556
vt 0.927369 0.104857
vt 0.652447 0.505743
vt 0.652447 0.575426
vt 0.519128 0.575426
vt 0.519128 0.505743
vt 0.652447 0.652671
vt 0.519128 0.652671
vt 0.652447 0.729915
vt 0.519128 0.729915
vt 0.652447 0.799598
vt 0.519128 0.799598
vt 0.379674 0.799598
vt 0.379674 0.729915
vt 0.512993 0.729915
vt 0.512993 0.799598
vt 0.379674 0.652670
vt 0.512993 0.652670
vt 0.379674 0.575426
vt 0.512993 0.575426
vt 0.379674 0.505743
vt 0.512993 0.505743
vn 0.000000 -1.000000 0.000000
vn 0.000000 -1.000000 0.000000
vn 0.000000 -1.000000 0.000000
vn 0.000000 -1.000000 0.000000
vn 0.000000 -1.000000 0.000000
vn 0.000000 -1.000000 0.000000
vn 0.000000 -1.000000 0.000000
vn 0.000000 -1.000000 0.000000
vn 0.000000 -1.000000 -0.000000
vn 0.000000 -1.000000 -0.000000
vn 0.000000 -1.000000 0.000000
vn 0.000000 -1.000000 -0.000000
vn 0.000000 -1.000000 0.000000
vn 0.000000 -1.000000 0.000000
vn 0.000000 -1.000000 0.000000
vn 0.000000 -1.000000 0.000000
vn 0.000000 -1.000000 0.000000
vn 0.000000 -1.000000 0.000000
vn 0.000000 -1.000000 -0.000000
vn 0.000000 -1.000000 -0.000000
vn 0.000000 -1.000000 0.000000
vn 0.668321 0.711473 -0.217150
vn 0.668320 0.711473 -0.217150
vn 0.702714 0.711473 0.000001
vn 0.702714 0.711473 0.000001
vn 0.568507 0.711473 -0.413045
vn 0.568507 0.711473 -0.413045
vn 0.413045 0.711473 -0.568507
vn 0.413045 0.711473 -0.568507
vn 0.217150 0.711473 -0.668320
vn 0.217150 0.711473 -0.668320
vn -0.000000 0.711473 -0.702713
vn -0.000000 0.711473 -0.702713
vn -0.217151 0.711473 -0.668320
vn -0.217150 0.711473 -0.668320
vn -0.413045 0.711473 -0.568507
vn -0.413045 0.711473 -0.568507
vn -0.568507 0.711473 -0.413045
vn -0.568507 0.711473 -0.413045
vn -0.668320 0.711473 -0.217150
vn -0.668320 0.711473 -0.217150
vn -0.702714 0.711473 0.000000
vn -0.702714 0.711473 0.000000
vn -0.668320 0.711473 0.217150
vn -0.668320 0.711473 0.217150
vn -0.568507 0.711473 0.413045
vn -0.568507 0.711473 0.413045
vn -0.413045 0.711473 0.568507
vn -0.413045 0.711473 0.568507
vn -0.217150 0.711473 0.668320
vn -0.217150 0.711473 0.668320
vn 0.000000 0.711473 0.702713
vn 0.000000 0.711473 0.702713
vn 0.217151 0.711473 0.668320
vn 0.217151 0.711473 0.668320
vn 0.413045 0.711473 0.568507
vn 0.413045 0.711473 0.568507
vn 0.568507 0.711473 0.413045
vn 0.568507 0.711473 0.413045
vn 0.668320 0.711473 0.217150
vn 0.668320 0.711473 0.217150
vn 0.951057 0.000000 -0.309016
vn 0.809017 0.000000 -0.587785
vn 0.809017 0.000000 -0.587785
vn 0.951057 0.000000 -0.309016
vn 0.587785 0.000000 -0.809017
vn 0.587785 0.000000 -0.809017
vn 0.309017 0.000000 -0.951057
vn 0.309017 0.000000 -0.951057
vn -0.000000 0.000000 -1.000000
vn -0.000000 0.000000 -1.000000
vn -0.309017 0.000000 -0.951056
vn -0.309017 0.000000 -0.951056
vn -0.587785 0.000000 -0.809017
vn -0.587785 0.000000 -0.809017
vn -0.809017 0.000000 -0.587785
vn -0.809017 0.000000 -0.587785
vn -0.951057 0.000000 -0.309017
vn -0.951057 0.000000 -0.309017
vn -1.000000 0.000000 0.000000
vn -1.000000 0.000000 0.000000
vn -0.951056 0.000000 0.309017
vn -0.951056 0.000000 0.309017
vn -0.809017 0.000000 0.587785
vn -0.809017 0.000000 0.587785
vn -0.587785 0.000000 0.809017
vn -0.587785 0.000000 0.809017
vn -0.309017 0.000000 0.951056
vn -0.309017 0.000000 0.951056
vn 0.000000 0.000000 1.000000
vn 0.000000 0.000000 1.000000
vn 0.309017 0.000000 0.951056
vn 0.309017 0.000000 0.951056
vn 0.587785 0.000000 0.809017
vn 0.587785 0.000000 0.809017
vn 0.809017 0.000000 0.587785
vn 0.809017 0.000000 0.587785
vn 0.951057 0.000000 0.309017
vn 0.951057 0.000000 0.309017
vn 1.000000 0.000000 0.000001
vn 1.000000 0.000000 0.000001
vn 0.000000 1.000000 0.000000
vn 0.000000 1.000000 0.000000
vn 0.000000 1.000000 -0.000000
vn 0.000000 1.000000 0.000000
vn 0.000000 1.000000 0.000000
vn 0.000000 1.000000 0.000000
vn 0.000000 1.000000 -0.000000
vn 0.000000 1.000000 -0.000000
vn 0.000000 1.000000 0.000000
vn 0.000000 1.000000 0.000000
vn 0.000000 1.000000 0.000000
vn 0.000000 1.000000 -0.000000
vn 0.000000 1.000000 0.000000
vn 0.000000 1.000000 -0.000000
vn 0.000000 1.000000 -0.000000
vn 0.000000 1.000000 0.000000
vn 0.000000 1.000000 0.000000
vn 0.000000 1.000000 0.000000
vn 0.000000 1.000000 0.000000
vn 0.000000 1.000000 0.000000
vn 0.000000 1.000000 0.000000
s 1
g pCylinder2
usemtl initialShadingGroup
f 2/40/1 1/41/2 21/42/3
f 3/44/4 2/40/1 21/42/3
f 4/46/5 3/44/4 21/42/3
f 5/48/6 4/46/5 21/42/3
f 6/50/7 5/48/6 21/42/3
f 7/52/8 6/50/7 21/42/3
f 8/54/9 7/52/8 21/42/3
f 9/56/10 8/54/9 21/42/3
f 10/58/11 9/56/10 21/42/3
f 11/60/12 10/58/11 21/42/3
f 12/59/13 11/60/12 21/42/3
f 13/57/14 12/59/13 21/42/3
f 14/55/15 13/57/14 21/42/3
f 15/53/16 14/55/15 21/42/3
f 16/51/17 15/53/16 21/42/3
f 17/49/18 16/51/17 21/42/3
f 18/47/19 17/49/18 21/42/3
f 19/45/20 18/47/19 21/42/3
f 20/43/21 19/45/20 21/42/3
f 1/41/2 20/43/21 21/42/3
s 2
f 23/4/22 24/7/23 62/12/24 61/10/25
f 24/7/23 23/4/22 25/3/26 26/8/27
f 26/8/27 25/3/26 27/6/28 28/11/29
f 28/74/29 27/75/28 29/72/30 30/71/31
f 30/71/31 29/72/30 31/69/32 32/68/33
f 32/68/33 31/69/32 33/66/34 34/65/35
f 34/65/35 33/66/34 35/62/36 36/61/37
f 36/61/37 35/62/36 37/63/38 38/64/39
f 38/27/39 37/24/38 39/23/40 40/28/41
f 40/28/41 39/23/40 41/26/42 42/33/43
f 42/33/43 41/26/42 43/32/44 44/36/45
f 44/36/45 43/32/44 45/35/46 46/39/47
f 46/77/47 45/81/46 47/82/48 48/79/49
f 48/79/49 47/82/48 49/85/50 50/83/51
f 50/83/51 49/85/50 51/88/52 52/86/53
f 52/86/53 51/88/52 53/91/54 54/89/55
f 54/89/55 53/91/54 55/93/56 56/92/57
f 56/92/57 55/93/56 57/94/58 58/90/59
f 58/18/59 57/17/58 59/14/60 60/15/61
f 60/15/61 59/14/60 61/10/25 62/12/24
s 3
f 1/1/62 2/2/63 25/3/64 23/4/65
f 2/2/63 3/5/66 27/6/67 25/3/64
f 3/95/66 4/96/68 29/97/69 27/98/67
f 4/96/68 5/99/70 31/100/71 29/97/69
f 5/99/70 6/101/72 33/102/73 31/100/71
f 6/101/72 7/103/74 35/104/75 33/102/73
f 7/29/74 8/21/76 37/24/77 35/30/75
f 8/21/76 9/22/78 39/23/79 37/24/77
f 9/22/78 10/25/80 41/26/81 39/23/79
f 10/25/80 11/31/82 43/32/83 41/26/81
f 11/31/82 12/34/84 45/35/85 43/32/83
f 12/34/84 13/37/86 47/38/87 45/35/85
f 13/105/86 14/106/88 49/107/89 47/108/87
f 14/106/88 15/109/90 51/110/91 49/107/89
f 15/109/90 16/111/92 53/112/93 51/110/91
f 16/111/92 17/113/94 55/114/95 53/112/93
f 17/19/94 18/16/96 57/17/97 55/20/95
f 18/16/96 19/13/98 59/14/99 57/17/97
f 19/13/98 20/9/100 61/10/101 59/14/99
f 20/9/100 1/1/62 23/4/65 61/10/101
s 4
f 24/80/102 26/78/103 22/67/104
f 26/78/103 28/74/105 22/67/104
f 28/74/105 30/71/106 22/67/104
f 30/71/106 32/68/107 22/67/104
f 32/68/107 34/65/108 22/67/104
f 34/65/108 36/61/109 22/67/104
f 36/61/109 38/64/110 22/67/104
f 38/64/110 40/70/111 22/67/104
f 40/70/111 42/73/112 22/67/104
f 42/73/112 44/76/113 22/67/104
f 44/76/113 46/77/114 22/67/104
f 46/77/114 48/79/115 22/67/104
f 48/79/115 50/83/116 22/67/104
f 50/83/116 52/86/117 22/67/104
f 52/86/117 54/89/118 22/67/104
f 54/89/118 56/92/119 22/67/104
f 56/92/119 58/90/120 22/67/104
f 58/90/120 60/87/121 22/67/104
f 60/87/121 62/84/122 22/67/104
f 62/84/122 24/80/102 22/67/104
