# This file uses centimeters as units for non-parametric coordinates.

mtllib Car Stand Display.mtl
g default
v 1.426586 0.400000 -0.463526
v 1.213526 0.400000 -0.881678
v 0.881678 0.400000 -1.213526
v 0.463526 0.400000 -1.426586
v 0.000000 0.400000 -1.500001
v -0.463526 0.400000 -1.426585
v -0.881678 0.400000 -1.213526
v -1.213526 0.400000 -0.881678
v -1.426585 0.400000 -0.463526
v -1.500000 0.400000 0.000000
v -1.426585 0.400000 0.463526
v -1.213526 0.400000 0.881678
v -0.881678 0.400000 1.213526
v -0.463526 0.400000 1.426585
v -0.000000 0.400000 1.500000
v 0.463526 0.400000 1.426585
v 0.881678 0.400000 1.213526
v 1.213526 0.400000 0.881678
v 1.426585 0.400000 0.463526
v 1.500000 0.400000 0.000000
v 1.426586 0.600000 -0.463526
v 1.213526 0.600000 -0.881678
v 0.881678 0.600000 -1.213526
v 0.463526 0.600000 -1.426586
v 0.000000 0.600000 -1.500001
v -0.463526 0.600000 -1.426585
v -0.881678 0.600000 -1.213526
v -1.213526 0.600000 -0.881678
v -1.426585 0.600000 -0.463526
v -1.500000 0.600000 -0.000000
v -1.426585 0.600000 0.463526
v -1.213526 0.600000 0.881678
v -0.881678 0.600000 1.213526
v -0.463526 0.600000 1.426585
v -0.000000 0.600000 1.500000
v 0.463526 0.600000 1.426585
v 0.881678 0.600000 1.213526
v 1.213526 0.600000 0.881678
v 1.426585 0.600000 0.463526
v 1.500000 0.600000 -0.000000
v 0.000000 0.600000 0.000000
v 1.426586 0.200000 -0.463526
v 1.213526 0.200000 -0.881678
v 0.000000 0.200000 0.000000
v 0.881678 0.200000 -1.213526
v 0.463526 0.200000 -1.426586
v 0.000000 0.200000 -1.500001
v -0.463526 0.200000 -1.426585
v -0.881678 0.200000 -1.213526
v -1.213526 0.200000 -0.881678
v -1.426585 0.200000 -0.463526
v -1.500000 0.200000 0.000000
v -1.426585 0.200000 0.463526
v -1.213526 0.200000 0.881678
v -0.881678 0.200000 1.213526
v -0.463526 0.200000 1.426585
v -0.000000 0.200000 1.500000
v 0.463526 0.200000 1.426585
v 0.881678 0.200000 1.213526
v 1.213526 0.200000 0.881678
v 1.426585 0.200000 0.463526
v 1.500000 0.200000 0.000000
v 1.896260 0.400000 -0.616132
v 1.613055 0.400000 -1.171953
v 1.896260 0.200000 -0.616131
v 1.613055 0.200000 -1.171953
v 1.171953 0.400000 -1.613054
v 1.171953 0.200000 -1.613054
v 0.616132 0.400000 -1.896259
v 0.616132 0.200000 -1.896259
v -0.000000 0.400000 -1.993845
v -0.000000 0.200000 -1.993845
v -0.616132 0.400000 -1.896259
v -0.616132 0.200000 -1.896259
v -1.171953 0.400000 -1.613054
v -1.171953 0.200000 -1.613054
v -1.613054 0.400000 -1.171952
v -1.613054 0.200000 -1.171952
v -1.896259 0.400000 -0.616132
v -1.896259 0.200000 -0.616132
v -1.993845 0.400000 0.000000
v -1.993845 0.200000 0.000000
v -1.896259 0.400000 0.616132
v -1.896259 0.200000 0.616132
v -1.613054 0.400000 1.171952
v -1.613054 0.200000 1.171952
v -1.171952 0.400000 1.613053
v -1.171952 0.200000 1.613053
v -0.616132 0.400000 1.896258
v -0.616132 0.200000 1.896258
v -0.000000 0.400000 1.993844
v -0.000000 0.200000 1.993844
v 0.616132 0.400000 1.896258
v 0.616132 0.200000 1.896258
v 1.171952 0.400000 1.613054
v 1.171952 0.200000 1.613054
v 1.613054 0.400000 1.171952
v 1.613054 0.200000 1.171952
v 1.896259 0.400000 0.616132
v 1.896259 0.200000 0.616132
v 1.993844 0.400000 0.000000
v 1.993844 0.200000 0.000000
vt 0.522696 0.350372
vt 0.558835 0.350372
vt 0.558835 0.609649
vt 0.522696 0.609649
vt 0.587515 0.350372
vt 0.587515 0.609649
vt 0.482635 0.350372
vt 0.482635 0.609649
vt 0.442575 0.350372
vt 0.442575 0.609649
vt 0.406435 0.350372
vt 0.406435 0.609649
vt 0.377755 0.350372
vt 0.377755 0.609649
vt 0.032006 0.350372
vt 0.068145 0.350372
vt 0.068145 0.609649
vt 0.032006 0.609649
vt 0.108206 0.350372
vt 0.108206 0.609649
vt 0.003326 0.350372
vt 0.003326 0.609649
vt 0.148266 0.350372
vt 0.148266 0.609649
vt 0.184405 0.350372
vt 0.184405 0.609649
vt 0.213086 0.350372
vt 0.213086 0.609649
vt 0.950820 0.397764
vt 0.902783 0.397801
vt 0.902586 0.138524
vt 0.950623 0.138487
vt 0.849533 0.397841
vt 0.849336 0.138564
vt 0.988942 0.397735
vt 0.988746 0.138458
vt 0.796284 0.397882
vt 0.796087 0.138605
vt 0.748246 0.397918
vt 0.748050 0.138641
vt 0.710124 0.397947
vt 0.709927 0.138670
vt 0.770381 0.717425
vt 0.722345 0.717116
vt 0.724013 0.457844
vt 0.772049 0.458154
vt 0.684223 0.716871
vt 0.685891 0.457599
vt 0.823629 0.717768
vt 0.825298 0.458496
vt 0.876878 0.718111
vt 0.878546 0.458839
vt 0.924914 0.718420
vt 0.926582 0.459148
vt 0.963036 0.718665
vt 0.964704 0.459393
vt 0.279191 0.097862
vt 0.297605 0.134001
vt 0.174311 0.174062
vt 0.313721 0.072775
vt 0.338197 0.120812
vt 0.303950 0.174062
vt 0.250511 0.069182
vt 0.275598 0.034652
vt 0.346631 0.174062
vt 0.297605 0.214122
vt 0.214372 0.050768
vt 0.227561 0.010176
vt 0.338197 0.227311
vt 0.279191 0.250261
vt 0.174311 0.044423
vt 0.174311 0.001742
vt 0.313721 0.275348
vt 0.250511 0.278941
vt 0.134251 0.050768
vt 0.121062 0.010176
vt 0.275598 0.313471
vt 0.214372 0.297355
vt 0.098112 0.069182
vt 0.073025 0.034652
vt 0.227561 0.337947
vt 0.174311 0.303700
vt 0.069432 0.097862
vt 0.034902 0.072775
vt 0.174311 0.346381
vt 0.134251 0.297355
vt 0.051018 0.134001
vt 0.010426 0.120812
vt 0.121062 0.337947
vt 0.098112 0.278941
vt 0.044673 0.174062
vt 0.001992 0.174062
vt 0.073025 0.313471
vt 0.069432 0.250261
vt 0.051018 0.214122
vt 0.010426 0.227311
vt 0.034902 0.275348
vt 0.414933 0.783340
vt 0.396519 0.819479
vt 0.291640 0.743279
vt 0.367839 0.848159
vt 0.421278 0.743279
vt 0.331700 0.866573
vt 0.414933 0.703219
vt 0.291640 0.872918
vt 0.396519 0.667080
vt 0.251579 0.866573
vt 0.367839 0.638400
vt 0.215440 0.848159
vt 0.331700 0.619986
vt 0.186760 0.819479
vt 0.291640 0.613641
vt 0.168346 0.783340
vt 0.251579 0.619986
vt 0.162001 0.743279
vt 0.215440 0.638400
vt 0.168346 0.703219
vt 0.186760 0.667080
vt 0.630197 0.250261
vt 0.648611 0.214122
vt 0.689203 0.227311
vt 0.664727 0.275348
vt 0.654956 0.174062
vt 0.697637 0.174062
vt 0.601517 0.278941
vt 0.626604 0.313471
vt 0.648611 0.134001
vt 0.689203 0.120812
vt 0.565378 0.297355
vt 0.578567 0.337947
vt 0.630197 0.097862
vt 0.664727 0.072775
vt 0.525318 0.303700
vt 0.525318 0.346381
vt 0.601517 0.069182
vt 0.626604 0.034652
vt 0.485257 0.297355
vt 0.472068 0.337947
vt 0.565378 0.050768
vt 0.578567 0.010176
vt 0.449118 0.278941
vt 0.424031 0.313471
vt 0.525318 0.044423
vt 0.525318 0.001742
vt 0.420438 0.250261
vt 0.385908 0.275348
vt 0.485257 0.050768
vt 0.472068 0.010176
vt 0.402024 0.214122
vt 0.361432 0.227311
vt 0.449118 0.069182
vt 0.424031 0.034652
vt 0.395679 0.174062
vt 0.352998 0.174062
vt 0.420438 0.097862
vt 0.385908 0.072775
vt 0.402024 0.134001
vt 0.361432 0.120812
vt 0.371620 0.609649
vt 0.335481 0.609649
vt 0.335481 0.350372
vt 0.371620 0.350372
vt 0.295420 0.609649
vt 0.295420 0.350372
vt 0.255360 0.609649
vt 0.255360 0.350372
vt 0.219221 0.609649
vt 0.219221 0.350372
vt 0.001992 0.613641
vt 0.038131 0.613641
vt 0.038131 0.872918
vt 0.001992 0.872918
vt 0.078192 0.613641
vt 0.078192 0.872918
vt 0.118252 0.613641
vt 0.118252 0.872918
vt 0.154391 0.613641
vt 0.154391 0.872918
vt 0.583544 0.735814
vt 0.631581 0.735814
vt 0.631581 0.995091
vt 0.583544 0.995091
vt 0.530294 0.735814
vt 0.530294 0.995091
vt 0.477045 0.735814
vt 0.477045 0.995091
vt 0.429008 0.735814
vt 0.429008 0.995091
vt 0.687531 0.995091
vt 0.639494 0.995091
vt 0.639494 0.735814
vt 0.687531 0.735814
vt 0.740781 0.995091
vt 0.740781 0.735814
vt 0.794031 0.995091
vt 0.794031 0.735814
vt 0.842068 0.995091
vt 0.842068 0.735814
vn 0.951057 -0.000000 -0.309016
vn 0.809017 0.000000 -0.587785
vn 0.951057 0.000000 -0.309016
vn 0.809017 0.000000 -0.587785
vn 0.587785 0.000000 -0.809017
vn 0.587785 0.000000 -0.809017
vn 0.309017 0.000000 -0.951057
vn 0.309017 0.000000 -0.951057
vn -0.000000 0.000000 -1.000000
vn -0.000000 0.000000 -1.000000
vn -0.309017 0.000000 -0.951057
vn -0.309017 0.000000 -0.951057
vn -0.587785 0.000000 -0.809017
vn -0.587785 0.000000 -0.809017
vn -0.809017 -0.000000 -0.587785
vn -0.809017 -0.000000 -0.587785
vn -0.951057 -0.000000 -0.309017
vn -0.951057 0.000000 -0.309017
vn -1.000000 0.000000 -0.000000
vn -1.000000 0.000000 0.000000
vn -0.951057 0.000000 0.309017
vn -0.951056 0.000000 0.309017
vn -0.809017 0.000000 0.587785
vn -0.809017 0.000000 0.587785
vn -0.587785 0.000000 0.809017
vn -0.587785 0.000000 0.809017
vn -0.309017 0.000000 0.951056
vn -0.309017 0.000000 0.951057
vn -0.000000 0.000000 1.000000
vn 0.000000 0.000000 1.000000
vn 0.309017 0.000000 0.951056
vn 0.309017 0.000000 0.951056
vn 0.587785 0.000000 0.809017
vn 0.587785 0.000000 0.809017
vn 0.809017 0.000000 0.587785
vn 0.809017 0.000000 0.587785
vn 0.951057 0.000000 0.309017
vn 0.951057 0.000000 0.309017
vn 1.000000 -0.000000 0.000001
vn 1.000000 -0.000000 0.000001
vn 0.000000 -1.000000 0.000000
vn 0.000000 -1.000000 -0.000000
vn -0.000000 -1.000000 0.000000
vn 0.000000 -1.000000 0.000000
vn 0.000000 -1.000000 0.000000
vn -0.000000 -1.000000 0.000000
vn -0.000000 -1.000000 -0.000000
vn 0.000000 -1.000000 -0.000000
vn 0.000000 -1.000000 0.000000
vn 0.000000 -1.000000 -0.000000
vn 0.000000 -1.000000 -0.000000
vn 0.000000 -1.000000 0.000000
vn 0.000000 -1.000000 0.000000
vn 0.000000 -1.000000 0.000000
vn 0.000000 -1.000000 -0.000000
vn 0.000000 -1.000000 0.000000
vn 0.000000 -1.000000 0.000000
vn 0.000000 -1.000000 0.000000
vn 0.000000 -1.000000 0.000000
vn 0.000000 -1.000000 0.000000
vn 0.000000 -1.000000 0.000000
vn 0.000000 1.000000 0.000000
vn 0.000000 1.000000 0.000000
vn 0.000000 1.000000 0.000000
vn 0.000000 1.000000 0.000000
vn 0.000000 1.000000 0.000000
vn 0.000000 1.000000 0.000000
vn 0.000000 1.000000 0.000000
vn 0.000000 1.000000 0.000000
vn 0.000000 1.000000 0.000000
vn 0.000000 1.000000 0.000000
vn 0.000000 1.000000 0.000000
vn 0.000000 1.000000 0.000000
vn 0.000000 1.000000 0.000000
vn 0.000000 1.000000 0.000000
vn 0.000000 1.000000 0.000000
vn 0.000000 1.000000 0.000000
vn 0.000000 1.000000 0.000000
vn 0.000000 1.000000 0.000000
vn 0.000000 1.000000 0.000000
vn 0.000000 1.000000 0.000000
vn 0.000000 1.000000 0.000000
vn 0.809017 0.000000 -0.587785
vn 0.951057 -0.000000 -0.309016
vn 0.809017 -0.000000 -0.587785
vn 0.951057 -0.000001 -0.309016
vn 0.587785 0.000000 -0.809017
vn 0.587785 0.000000 -0.809017
vn 0.309017 0.000000 -0.951056
vn 0.309017 0.000000 -0.951056
vn -0.000000 0.000000 -1.000000
vn 0.000000 0.000000 -1.000000
vn -0.309018 0.000000 -0.951056
vn -0.309017 0.000000 -0.951056
vn -0.587786 0.000000 -0.809017
vn -0.587786 0.000000 -0.809017
vn -0.809017 0.000000 -0.587785
vn -0.809017 0.000000 -0.587785
vn -0.951057 0.000000 -0.309017
vn -0.951057 0.000000 -0.309017
vn -1.000000 0.000000 -0.000000
vn -1.000000 0.000000 0.000000
vn -0.951056 0.000000 0.309017
vn -0.951056 0.000000 0.309017
vn -0.809017 0.000000 0.587786
vn -0.809017 0.000000 0.587786
vn -0.587785 0.000000 0.809017
vn -0.587785 0.000000 0.809017
vn -0.309017 0.000000 0.951056
vn -0.309017 0.000000 0.951056
vn -0.000000 0.000000 1.000000
vn 0.000000 0.000000 1.000000
vn 0.309017 0.000000 0.951056
vn 0.309017 0.000000 0.951057
vn 0.587785 0.000000 0.809017
vn 0.587785 0.000000 0.809017
vn 0.809017 0.000000 0.587786
vn 0.809017 0.000000 0.587786
vn 0.951056 0.000000 0.309017
vn 0.951056 0.000000 0.309017
vn 1.000000 -0.000000 0.000001
vn 1.000000 0.000000 0.000001
vn 0.000000 1.000000 0.000000
vn 0.000000 1.000000 0.000000
vn 0.000000 1.000000 0.000000
vn 0.000000 1.000000 0.000000
vn 0.000000 -1.000000 -0.000000
vn 0.000000 -1.000000 0.000000
vn 0.000000 1.000000 0.000000
vn 0.000000 1.000000 0.000000
vn 0.000000 -1.000000 0.000000
vn 0.000000 1.000000 -0.000000
vn 0.000000 1.000000 0.000000
vn 0.000000 -1.000000 0.000000
vn 0.000000 1.000000 -0.000000
vn 0.000000 1.000000 -0.000000
vn -0.000000 -1.000000 0.000000
vn 0.000000 1.000000 0.000000
vn 0.000000 1.000000 0.000000
vn -0.000000 -1.000000 -0.000000
vn 0.000000 1.000000 0.000000
vn 0.000000 1.000000 0.000000
vn 0.000000 -1.000000 0.000000
vn 0.000000 1.000000 0.000000
vn 0.000000 1.000000 0.000000
vn 0.000000 -1.000000 0.000000
vn 0.000000 1.000000 0.000000
vn 0.000000 1.000000 0.000000
vn 0.000000 -1.000000 0.000000
vn 0.000000 1.000000 0.000000
vn 0.000000 1.000000 0.000000
vn 0.000000 -1.000000 0.000000
vn 0.000000 1.000000 0.000000
vn 0.000000 1.000000 0.000000
vn 0.000000 -1.000000 0.000000
vn 0.000000 1.000000 0.000000
vn 0.000000 1.000000 0.000000
vn 0.000000 -1.000000 0.000000
vn 0.000000 1.000000 0.000000
vn 0.000000 1.000000 0.000000
vn 0.000000 -1.000000 0.000000
vn 0.000000 1.000000 0.000000
vn 0.000000 1.000000 0.000000
vn 0.000000 -1.000000 -0.000000
vn 0.000000 1.000000 0.000000
vn 0.000000 1.000000 0.000000
vn 0.000000 -1.000000 0.000000
vn 0.000000 1.000000 0.000000
vn 0.000000 1.000000 0.000000
vn 0.000000 -1.000000 0.000000
vn 0.000000 1.000000 0.000000
vn 0.000000 1.000000 0.000000
vn 0.000000 -1.000000 0.000000
vn 0.000000 1.000000 0.000000
vn 0.000000 1.000000 0.000000
vn 0.000000 -1.000000 0.000000
vn 0.000000 1.000000 0.000000
vn 0.000000 1.000000 0.000000
vn 0.000000 -1.000000 0.000000
vn 0.000000 1.000000 0.000000
vn 0.000000 1.000000 0.000000
vn 0.000000 -1.000000 -0.000000
s 1
g pCylinder1
usemtl initialShadingGroup
f 1/1/1 2/2/2 21/4/3
f 21/4/3 2/2/2 22/3/4
f 2/2/2 3/5/5 22/3/4
f 22/3/4 3/5/5 23/6/6
f 3/159/5 4/160/7 23/162/6
f 23/162/6 4/160/7 24/161/8
f 4/160/7 5/163/9 24/161/8
f 24/161/8 5/163/9 25/164/10
f 5/163/9 6/165/11 25/164/10
f 25/164/10 6/165/11 26/166/12
f 6/165/11 7/167/13 26/166/12
f 26/166/12 7/167/13 27/168/14
f 7/21/13 8/15/15 27/22/14
f 27/22/14 8/15/15 28/18/16
f 8/15/15 9/16/17 28/18/16
f 28/18/16 9/16/17 29/17/18
f 9/16/17 10/19/19 29/17/18
f 29/17/18 10/19/19 30/20/20
f 10/19/19 11/23/21 30/20/20
f 30/20/20 11/23/21 31/24/22
f 11/23/21 12/25/23 31/24/22
f 31/24/22 12/25/23 32/26/24
f 12/25/23 13/27/25 32/26/24
f 32/26/24 13/27/25 33/28/26
f 13/169/25 14/170/27 33/172/26
f 33/172/26 14/170/27 34/171/28
f 14/170/27 15/173/29 34/171/28
f 34/171/28 15/173/29 35/174/30
f 15/173/29 16/175/31 35/174/30
f 35/174/30 16/175/31 36/176/32
f 16/175/31 17/177/33 36/176/32
f 36/176/32 17/177/33 37/178/34
f 17/13/33 18/11/35 37/14/34
f 37/14/34 18/11/35 38/12/36
f 18/11/35 19/9/37 38/12/36
f 38/12/36 19/9/37 39/10/38
f 19/9/37 20/7/39 39/10/38
f 39/10/38 20/7/39 40/8/40
f 20/7/39 1/1/1 40/8/40
f 40/8/40 1/1/1 21/4/3
s 2
f 43/57/41 42/58/42 44/59/43
f 45/63/44 43/57/41 44/59/43
f 46/67/45 45/63/44 44/59/43
f 47/71/46 46/67/45 44/59/43
f 48/75/47 47/71/46 44/59/43
f 49/79/48 48/75/47 44/59/43
f 50/83/49 49/79/48 44/59/43
f 51/87/50 50/83/49 44/59/43
f 52/91/51 51/87/50 44/59/43
f 53/95/52 52/91/51 44/59/43
f 54/94/53 53/95/52 44/59/43
f 55/90/54 54/94/53 44/59/43
f 56/86/55 55/90/54 44/59/43
f 57/82/56 56/86/55 44/59/43
f 58/78/57 57/82/56 44/59/43
f 59/74/58 58/78/57 44/59/43
f 60/70/59 59/74/58 44/59/43
f 61/66/60 60/70/59 44/59/43
f 62/62/61 61/66/60 44/59/43
f 42/58/42 62/62/61 44/59/43
s 3
f 21/98/62 22/99/63 41/100/64
f 22/99/63 23/101/65 41/100/64
f 23/101/65 24/103/66 41/100/64
f 24/103/66 25/105/67 41/100/64
f 25/105/67 26/107/68 41/100/64
f 26/107/68 27/109/69 41/100/64
f 27/109/69 28/111/70 41/100/64
f 28/111/70 29/113/71 41/100/64
f 29/113/71 30/115/72 41/100/64
f 30/115/72 31/117/73 41/100/64
f 31/117/73 32/118/74 41/100/64
f 32/118/74 33/116/75 41/100/64
f 33/116/75 34/114/76 41/100/64
f 34/114/76 35/112/77 41/100/64
f 35/112/77 36/110/78 41/100/64
f 36/110/78 37/108/79 41/100/64
f 37/108/79 38/106/80 41/100/64
f 38/106/80 39/104/81 41/100/64
f 39/104/81 40/102/82 41/100/64
f 40/102/82 21/98/62 41/100/64
s 4
f 64/29/83 63/30/84 66/32/85
f 66/32/85 63/30/84 65/31/86
f 67/35/87 64/29/83 68/36/88
f 68/36/88 64/29/83 66/32/85
f 69/179/89 67/180/87 70/182/90
f 70/182/90 67/180/87 68/181/88
f 71/183/91 69/179/89 72/184/92
f 72/184/92 69/179/89 70/182/90
f 73/185/93 71/183/91 74/186/94
f 74/186/94 71/183/91 72/184/92
f 75/187/95 73/185/93 76/188/96
f 76/188/96 73/185/93 74/186/94
f 77/44/97 75/47/95 78/45/98
f 78/45/98 75/47/95 76/48/96
f 79/43/99 77/44/97 80/46/100
f 80/46/100 77/44/97 78/45/98
f 81/49/101 79/43/99 82/50/102
f 82/50/102 79/43/99 80/46/100
f 83/51/103 81/49/101 84/52/104
f 84/52/104 81/49/101 82/50/102
f 85/53/105 83/51/103 86/54/106
f 86/54/106 83/51/103 84/52/104
f 87/55/107 85/53/105 88/56/108
f 88/56/108 85/53/105 86/54/106
f 89/189/109 87/190/107 90/192/110
f 90/192/110 87/190/107 88/191/108
f 91/193/111 89/189/109 92/194/112
f 92/194/112 89/189/109 90/192/110
f 93/195/113 91/193/111 94/196/114
f 94/196/114 91/193/111 92/194/112
f 95/197/115 93/195/113 96/198/116
f 96/198/116 93/195/113 94/196/114
f 97/39/117 95/41/115 98/40/118
f 98/40/118 95/41/115 96/42/116
f 99/37/119 97/39/117 100/38/120
f 100/38/120 97/39/117 98/40/118
f 101/33/121 99/37/119 102/34/122
f 102/34/122 99/37/119 100/38/120
f 63/30/84 101/33/121 65/31/86
f 65/31/86 101/33/121 102/34/122
s 5
f 2/119/123 1/120/124 64/122/125
f 64/122/125 1/120/124 63/121/126
s 2
f 42/58/42 43/57/41 65/61/127
f 65/61/127 43/57/41 66/60/128
s 5
f 3/125/129 2/119/123 67/126/130
f 67/126/130 2/119/123 64/122/125
s 2
f 43/57/41 45/63/44 66/60/128
f 66/60/128 45/63/44 68/64/131
s 5
f 4/129/132 3/125/129 69/130/133
f 69/130/133 3/125/129 67/126/130
s 2
f 45/63/44 46/67/45 68/64/131
f 68/64/131 46/67/45 70/68/134
s 5
f 5/133/135 4/129/132 71/134/136
f 71/134/136 4/129/132 69/130/133
s 2
f 46/67/45 47/71/46 70/68/134
f 70/68/134 47/71/46 72/72/137
s 5
f 6/137/138 5/133/135 73/138/139
f 73/138/139 5/133/135 71/134/136
s 2
f 47/71/46 48/75/47 72/72/137
f 72/72/137 48/75/47 74/76/140
s 5
f 7/141/141 6/137/138 75/142/142
f 75/142/142 6/137/138 73/138/139
s 2
f 48/75/47 49/79/48 74/76/140
f 74/76/140 49/79/48 76/80/143
s 5
f 8/145/144 7/141/141 77/146/145
f 77/146/145 7/141/141 75/142/142
s 2
f 49/79/48 50/83/49 76/80/143
f 76/80/143 50/83/49 78/84/146
s 5
f 9/149/147 8/145/144 79/150/148
f 79/150/148 8/145/144 77/146/145
s 2
f 50/83/49 51/87/50 78/84/146
f 78/84/146 51/87/50 80/88/149
s 5
f 10/153/150 9/149/147 81/154/151
f 81/154/151 9/149/147 79/150/148
s 2
f 51/87/50 52/91/51 80/88/149
f 80/88/149 52/91/51 82/92/152
s 5
f 11/157/153 10/153/150 83/158/154
f 83/158/154 10/153/150 81/154/151
s 2
f 52/91/51 53/95/52 82/92/152
f 82/92/152 53/95/52 84/96/155
s 5
f 12/155/156 11/157/153 85/156/157
f 85/156/157 11/157/153 83/158/154
s 2
f 53/95/52 54/94/53 84/96/155
f 84/96/155 54/94/53 86/97/158
s 5
f 13/151/159 12/155/156 87/152/160
f 87/152/160 12/155/156 85/156/157
s 2
f 54/94/53 55/90/54 86/97/158
f 86/97/158 55/90/54 88/93/161
s 5
f 14/147/162 13/151/159 89/148/163
f 89/148/163 13/151/159 87/152/160
s 2
f 55/90/54 56/86/55 88/93/161
f 88/93/161 56/86/55 90/89/164
s 5
f 15/143/165 14/147/162 91/144/166
f 91/144/166 14/147/162 89/148/163
s 2
f 56/86/55 57/82/56 90/89/164
f 90/89/164 57/82/56 92/85/167
s 5
f 16/139/168 15/143/165 93/140/169
f 93/140/169 15/143/165 91/144/166
s 2
f 57/82/56 58/78/57 92/85/167
f 92/85/167 58/78/57 94/81/170
s 5
f 17/135/171 16/139/168 95/136/172
f 95/136/172 16/139/168 93/140/169
s 2
f 58/78/57 59/74/58 94/81/170
f 94/81/170 59/74/58 96/77/173
s 5
f 18/131/174 17/135/171 97/132/175
f 97/132/175 17/135/171 95/136/172
s 2
f 59/74/58 60/70/59 96/77/173
f 96/77/173 60/70/59 98/73/176
s 5
f 19/127/177 18/131/174 99/128/178
f 99/128/178 18/131/174 97/132/175
s 2
f 60/70/59 61/66/60 98/73/176
f 98/73/176 61/66/60 100/69/179
s 5
f 20/123/180 19/127/177 101/124/181
f 101/124/181 19/127/177 99/128/178
s 2
f 61/66/60 62/62/61 100/69/179
f 100/69/179 62/62/61 102/65/182
s 5
f 1/120/124 20/123/180 63/121/126
f 63/121/126 20/123/180 101/124/181
s 2
f 62/62/61 42/58/42 102/65/182
f 102/65/182 42/58/42 65/61/127
