# This file uses centimeters as units for non-parametric coordinates.

mtllib Upgr4d35 hear.mtl
g default
v -1.397045 1.477966 -0.750354
v 1.397045 1.477966 -0.750354
v -1.397045 0.477966 -0.750354
v 1.397045 0.477966 -0.750354
vt 0.955012 0.795048
vt 0.046062 0.795814
vt 0.953694 0.267271
vt 0.044744 0.268036
vn 0.000000 0.000000 -1.000000
vn 0.000000 0.000000 -1.000000
vn 0.000000 0.000000 -1.000000
vn 0.000000 0.000000 -1.000000
s off
g pPlane1
usemtl initialShadingGroup
f 1/1/1 2/2/2 4/4/3 3/3/4
