# This file uses centimeters as units for non-parametric coordinates.

mtllib Arcade Button_Exterior.mtl
g default
v 0.071329 -0.050000 -0.023176
v 0.060676 -0.050000 -0.044084
v 0.044084 -0.050000 -0.060676
v 0.023176 -0.050000 -0.071329
v 0.000000 -0.050000 -0.075000
v -0.023176 -0.050000 -0.071329
v -0.044084 -0.050000 -0.060676
v -0.060676 -0.050000 -0.044084
v -0.071329 -0.050000 -0.023176
v -0.075000 -0.050000 0.000000
v -0.071329 -0.050000 0.023176
v -0.060676 -0.050000 0.044084
v -0.044084 -0.050000 0.060676
v -0.023176 -0.050000 0.071329
v -0.000000 -0.050000 0.075000
v 0.023176 -0.050000 0.071329
v 0.044084 -0.050000 0.060676
v 0.060676 -0.050000 0.044084
v 0.071329 -0.050000 0.023176
v 0.075000 -0.050000 0.000000
v 0.071329 0.000000 -0.023176
v 0.060676 0.000000 -0.044084
v 0.044084 0.000000 -0.060676
v 0.023176 0.000000 -0.071329
v 0.000000 0.000000 -0.075000
v -0.023176 0.000000 -0.071329
v -0.044084 0.000000 -0.060676
v -0.060676 0.000000 -0.044084
v -0.071329 0.000000 -0.023176
v -0.075000 0.000000 0.000000
v -0.071329 0.000000 0.023176
v -0.060676 0.000000 0.044084
v -0.044084 0.000000 0.060676
v -0.023176 0.000000 0.071329
v -0.000000 0.000000 0.075000
v 0.023176 0.000000 0.071329
v 0.044084 0.000000 0.060676
v 0.060676 0.000000 0.044084
v 0.071329 0.000000 0.023176
v 0.075000 0.000000 0.000000
v 0.083072 -0.050000 -0.026992
v 0.094813 -0.037807 -0.030807
v 0.080653 -0.037807 -0.058598
v 0.070666 -0.050000 -0.051342
v 0.070666 -0.000000 -0.051342
v 0.080653 -0.012193 -0.058598
v 0.094813 -0.012193 -0.030807
v 0.083072 -0.000000 -0.026992
v 0.058598 -0.037807 -0.080653
v 0.051342 -0.050000 -0.070666
v 0.051342 -0.000000 -0.070666
v 0.058598 -0.012193 -0.080653
v 0.030807 -0.037807 -0.094813
v 0.026992 -0.050000 -0.083072
v 0.026992 -0.000000 -0.083072
v 0.030807 -0.012193 -0.094813
v -0.000000 -0.037807 -0.099692
v -0.000000 -0.050000 -0.087347
v -0.000000 -0.000000 -0.087347
v -0.000000 -0.012193 -0.099692
v -0.030807 -0.037807 -0.094813
v -0.026992 -0.050000 -0.083072
v -0.026992 0.000000 -0.083072
v -0.030807 -0.012193 -0.094813
v -0.058598 -0.037807 -0.080653
v -0.051341 -0.050000 -0.070666
v -0.051341 0.000000 -0.070666
v -0.058598 -0.012193 -0.080653
v -0.080653 -0.037807 -0.058598
v -0.070666 -0.050000 -0.051341
v -0.070666 0.000000 -0.051341
v -0.080653 -0.012193 -0.058598
v -0.094813 -0.037807 -0.030807
v -0.083072 -0.050000 -0.026992
v -0.083072 0.000000 -0.026992
v -0.094813 -0.012193 -0.030807
v -0.099692 -0.037807 0.000000
v -0.087347 -0.050000 0.000000
v -0.087347 0.000000 0.000000
v -0.099692 -0.012193 0.000000
v -0.094813 -0.037807 0.030807
v -0.083072 -0.050000 0.026992
v -0.083072 -0.000000 0.026992
v -0.094813 -0.012193 0.030807
v -0.080653 -0.037807 0.058598
v -0.070665 -0.050000 0.051341
v -0.070665 -0.000000 0.051341
v -0.080653 -0.012193 0.058598
v -0.058598 -0.037807 0.080653
v -0.051341 -0.050000 0.070665
v -0.051341 -0.000000 0.070665
v -0.058598 -0.012193 0.080653
v -0.030807 -0.037807 0.094813
v -0.026992 -0.050000 0.083072
v -0.026992 -0.000000 0.083072
v -0.030807 -0.012193 0.094813
v -0.000000 -0.037807 0.099692
v -0.000000 -0.050000 0.087347
v -0.000000 -0.000000 0.087347
v -0.000000 -0.012193 0.099692
v 0.030807 -0.037807 0.094813
v 0.026992 -0.050000 0.083072
v 0.026992 -0.000000 0.083072
v 0.030807 -0.012193 0.094813
v 0.058598 -0.037807 0.080653
v 0.051341 -0.050000 0.070665
v 0.051341 -0.000000 0.070665
v 0.058598 -0.012193 0.080653
v 0.080653 -0.037807 0.058598
v 0.070665 -0.050000 0.051341
v 0.070665 -0.000000 0.051341
v 0.080653 -0.012193 0.058598
v 0.094813 -0.037807 0.030807
v 0.083072 -0.050000 0.026992
v 0.083072 -0.000000 0.026992
v 0.094813 -0.012193 0.030807
v 0.099692 -0.037807 0.000000
v 0.087347 -0.050000 0.000000
v 0.087347 0.000000 0.000000
v 0.099692 -0.012193 0.000000
vt 0.899866 0.652838
vt 0.899866 0.580697
vt 0.966357 0.580697
vt 0.966357 0.652838
vt 0.868215 0.662741
vt 0.868215 0.599533
vt 0.899866 0.523445
vt 0.966357 0.523445
vt 0.998008 0.599533
vt 0.998008 0.662741
vt 0.899866 0.732808
vt 0.966357 0.732808
vt 0.868215 0.732808
vt 0.868215 0.549370
vt 0.998008 0.549370
vt 0.998008 0.732808
vt 0.899866 0.812777
vt 0.966357 0.812777
vt 0.868215 0.802875
vt 0.998008 0.802875
vt 0.899866 0.884919
vt 0.966357 0.884919
vt 0.868215 0.866083
vt 0.998008 0.866083
vt 0.899866 0.942171
vt 0.966357 0.942171
vt 0.763938 0.884919
vt 0.763938 0.812777
vt 0.830429 0.812777
vt 0.830429 0.884919
vt 0.732287 0.866083
vt 0.732287 0.802875
vt 0.763938 0.732808
vt 0.830429 0.732808
vt 0.862080 0.866083
vt 0.862080 0.802875
vt 0.763938 0.942171
vt 0.830429 0.942171
vt 0.732287 0.916245
vt 0.732287 0.732808
vt 0.763938 0.652838
vt 0.830429 0.652838
vt 0.862080 0.732808
vt 0.862080 0.916245
vt 0.732287 0.662741
vt 0.763938 0.580697
vt 0.830429 0.580697
vt 0.862080 0.662741
vt 0.732287 0.599533
vt 0.763938 0.523445
vt 0.830429 0.523445
vt 0.862080 0.599533
vt 0.596359 0.795387
vt 0.596359 0.741114
vt 0.726152 0.741114
vt 0.726152 0.795387
vt 0.596359 0.680952
vt 0.726152 0.680952
vt 0.596359 0.838459
vt 0.726152 0.838459
vt 0.596359 0.620790
vt 0.726152 0.620790
vt 0.596359 0.566516
vt 0.726152 0.566516
vt 0.596359 0.523445
vt 0.726152 0.523445
vt 0.460431 0.795387
vt 0.460431 0.741114
vt 0.590224 0.741114
vt 0.590224 0.795387
vt 0.460431 0.680952
vt 0.590224 0.680952
vt 0.460431 0.838459
vt 0.590224 0.838459
vt 0.460431 0.620790
vt 0.590224 0.620790
vt 0.460431 0.566517
vt 0.590224 0.566517
vt 0.460431 0.523445
vt 0.590224 0.523445
vt 0.019370 0.412778
vt 0.045296 0.393942
vt 0.095458 0.444105
vt 0.076622 0.470030
vt 0.071226 0.375103
vt 0.114298 0.418174
vt 0.158666 0.476311
vt 0.148764 0.506788
vt 0.168571 0.445827
vt 0.043573 0.320829
vt 0.013090 0.330734
vt 0.228733 0.487408
vt 0.228733 0.519454
vt 0.228733 0.455356
vt 0.034044 0.260667
vt 0.001992 0.260667
vt 0.298800 0.476311
vt 0.308702 0.506788
vt 0.288895 0.445827
vt 0.043573 0.200505
vt 0.013090 0.190600
vt 0.362008 0.444104
vt 0.380844 0.470030
vt 0.343168 0.418174
vt 0.071226 0.146232
vt 0.045296 0.127392
vt 0.412170 0.393942
vt 0.438096 0.412778
vt 0.386240 0.375103
vt 0.114298 0.103160
vt 0.095458 0.077230
vt 0.413893 0.320829
vt 0.444377 0.330734
vt 0.168571 0.075507
vt 0.158666 0.045024
vt 0.423422 0.260667
vt 0.455474 0.260667
vt 0.148764 0.014547
vt 0.076622 0.051304
vt 0.228733 0.065978
vt 0.228733 0.033926
vt 0.413894 0.200505
vt 0.444377 0.190600
vt 0.228733 0.001881
vt 0.288895 0.075507
vt 0.298800 0.045024
vt 0.386240 0.146232
vt 0.412170 0.127392
vt 0.308702 0.014547
vt 0.343169 0.103160
vt 0.362008 0.077230
vt 0.380844 0.051304
vt 0.846388 0.375103
vt 0.874041 0.320829
vt 0.904524 0.330734
vt 0.872318 0.393942
vt 0.883570 0.260667
vt 0.915622 0.260667
vt 0.803316 0.418174
vt 0.822156 0.444105
vt 0.874041 0.200505
vt 0.904524 0.190600
vt 0.749043 0.445828
vt 0.758948 0.476311
vt 0.846388 0.146232
vt 0.872318 0.127392
vt 0.840992 0.470030
vt 0.768850 0.506788
vt 0.688881 0.455356
vt 0.688881 0.487408
vt 0.803316 0.103160
vt 0.822156 0.077230
vt 0.688881 0.519454
vt 0.628718 0.445827
vt 0.618814 0.476311
vt 0.749043 0.075507
vt 0.758948 0.045024
vt 0.840992 0.051304
vt 0.898243 0.108556
vt 0.608911 0.506788
vt 0.574445 0.418174
vt 0.555606 0.444104
vt 0.688881 0.065978
vt 0.688881 0.033926
vt 0.768850 0.014547
vt 0.536770 0.470030
vt 0.531374 0.375102
vt 0.505443 0.393942
vt 0.628718 0.075507
vt 0.618814 0.045024
vt 0.688881 0.001881
vt 0.503720 0.320829
vt 0.473237 0.330734
vt 0.574445 0.103160
vt 0.555606 0.077230
vt 0.608911 0.014547
vt 0.494192 0.260667
vt 0.462140 0.260667
vt 0.531374 0.146232
vt 0.505443 0.127392
vt 0.536770 0.051304
vt 0.503720 0.200505
vt 0.473237 0.190600
vt 0.479518 0.108556
vt 0.454296 0.523445
vt 0.454296 0.595587
vt 0.387805 0.595587
vt 0.387805 0.523445
vt 0.454296 0.675556
vt 0.387805 0.675556
vt 0.454296 0.755525
vt 0.387805 0.755525
vt 0.454296 0.827667
vt 0.387805 0.827667
vt 0.315179 0.827667
vt 0.315179 0.755525
vt 0.381670 0.755525
vt 0.381670 0.827667
vt 0.315179 0.675556
vt 0.381670 0.675556
vt 0.315179 0.595587
vt 0.381670 0.595587
vt 0.315179 0.523445
vt 0.381670 0.523445
vt 0.173116 0.523445
vt 0.173116 0.577718
vt 0.043323 0.577718
vt 0.043323 0.523445
vt 0.173116 0.637880
vt 0.043323 0.637880
vt 0.173116 0.698043
vt 0.043323 0.698043
vt 0.173116 0.752316
vt 0.043323 0.752316
vt 0.179251 0.752316
vt 0.179251 0.698043
vt 0.309044 0.698043
vt 0.309044 0.752316
vt 0.179251 0.637881
vt 0.309044 0.637881
vt 0.179251 0.577718
vt 0.309044 0.577718
vt 0.179251 0.523445
vt 0.309044 0.523445
vn 0.668320 -0.711473 -0.217150
vn 0.668320 -0.711473 -0.217150
vn 0.702714 -0.711473 0.000001
vn 0.702714 -0.711473 0.000001
vn 0.568507 -0.711473 -0.413045
vn 0.568507 -0.711473 -0.413045
vn 0.413045 -0.711473 -0.568507
vn 0.413045 -0.711473 -0.568507
vn 0.568508 0.711473 -0.413045
vn 0.568507 0.711473 -0.413045
vn 0.413045 0.711473 -0.568507
vn 0.413045 0.711473 -0.568507
vn 0.668320 0.711473 -0.217150
vn 0.668320 0.711473 -0.217150
vn 0.702714 0.711473 0.000000
vn 0.702714 0.711473 0.000000
vn 0.217150 -0.711473 -0.668320
vn 0.217150 -0.711473 -0.668320
vn 0.217150 0.711473 -0.668320
vn 0.217150 0.711473 -0.668320
vn 0.000000 -0.711473 -0.702713
vn 0.000000 -0.711473 -0.702713
vn 0.000000 0.711473 -0.702714
vn 0.000000 0.711473 -0.702714
vn -0.217150 -0.711474 -0.668319
vn -0.217150 -0.711474 -0.668319
vn -0.217150 0.711473 -0.668320
vn -0.217150 0.711473 -0.668320
vn -0.413045 -0.711473 -0.568507
vn -0.413045 -0.711473 -0.568507
vn -0.413045 0.711473 -0.568507
vn -0.413045 0.711473 -0.568507
vn -0.568507 -0.711473 -0.413045
vn -0.568507 -0.711473 -0.413045
vn -0.568507 0.711473 -0.413045
vn -0.568507 0.711473 -0.413045
vn -0.668321 -0.711473 -0.217150
vn -0.668321 -0.711473 -0.217150
vn -0.668321 0.711472 -0.217150
vn -0.668321 0.711473 -0.217150
vn -0.702714 -0.711473 0.000000
vn -0.702714 -0.711473 0.000000
vn -0.702714 0.711472 0.000000
vn -0.702714 0.711472 0.000000
vn -0.668321 -0.711473 0.217151
vn -0.668321 -0.711473 0.217151
vn -0.668321 0.711473 0.217151
vn -0.668321 0.711472 0.217151
vn -0.568507 -0.711473 0.413045
vn -0.568507 -0.711473 0.413045
vn -0.568507 0.711473 0.413045
vn -0.568507 0.711473 0.413045
vn -0.413045 -0.711473 0.568507
vn -0.413045 -0.711473 0.568507
vn -0.413045 0.711473 0.568507
vn -0.413045 0.711473 0.568507
vn -0.217151 -0.711473 0.668321
vn -0.217151 -0.711473 0.668321
vn -0.217151 0.711473 0.668321
vn -0.217151 0.711473 0.668321
vn 0.000000 -0.711473 0.702714
vn 0.000000 -0.711473 0.702714
vn 0.000000 0.711473 0.702714
vn 0.000000 0.711473 0.702714
vn 0.217151 -0.711473 0.668320
vn 0.217151 -0.711473 0.668320
vn 0.217151 0.711473 0.668320
vn 0.217151 0.711473 0.668321
vn 0.413045 -0.711473 0.568507
vn 0.413045 -0.711473 0.568507
vn 0.413045 0.711473 0.568507
vn 0.413045 0.711473 0.568507
vn 0.568507 -0.711473 0.413045
vn 0.568507 -0.711473 0.413045
vn 0.568507 0.711473 0.413045
vn 0.568507 0.711473 0.413045
vn 0.668320 -0.711473 0.217151
vn 0.668320 -0.711473 0.217151
vn 0.668320 0.711473 0.217151
vn 0.668321 0.711473 0.217151
vn 0.951057 0.000000 -0.309016
vn 0.809017 0.000000 -0.587785
vn 0.809017 0.000000 -0.587785
vn 0.951057 0.000000 -0.309016
vn 0.587785 0.000000 -0.809017
vn 0.587785 0.000000 -0.809017
vn 0.309017 0.000000 -0.951056
vn 0.309017 0.000000 -0.951056
vn -0.000000 0.000000 -1.000000
vn -0.000000 0.000000 -1.000000
vn -0.309017 0.000000 -0.951056
vn -0.309017 0.000000 -0.951056
vn -0.587785 0.000000 -0.809017
vn -0.587785 0.000000 -0.809017
vn -0.809017 0.000000 -0.587785
vn -0.809017 0.000000 -0.587785
vn -0.951057 0.000000 -0.309017
vn -0.951057 0.000000 -0.309017
vn -1.000000 0.000000 0.000000
vn -1.000000 0.000000 0.000000
vn -0.951057 0.000000 0.309017
vn -0.951057 0.000000 0.309017
vn -0.809017 0.000000 0.587785
vn -0.809017 0.000000 0.587785
vn -0.587785 0.000000 0.809017
vn -0.587785 0.000000 0.809017
vn -0.309017 0.000000 0.951057
vn -0.309017 0.000000 0.951057
vn 0.000000 0.000000 1.000000
vn 0.000000 0.000000 1.000000
vn 0.309017 0.000000 0.951056
vn 0.309017 0.000000 0.951056
vn 0.587785 0.000000 0.809017
vn 0.587785 0.000000 0.809017
vn 0.809017 0.000000 0.587785
vn 0.809017 0.000000 0.587785
vn 0.951056 0.000000 0.309017
vn 0.951056 0.000000 0.309017
vn 1.000000 0.000000 0.000001
vn 1.000000 0.000000 0.000001
vn 0.000005 -1.000000 -0.000001
vn 0.000004 -1.000000 -0.000003
vn 0.000004 -1.000000 -0.000003
vn 0.000005 -1.000000 -0.000001
vn 0.000001 1.000000 -0.000001
vn 0.000001 1.000000 -0.000001
vn 0.000001 1.000000 -0.000001
vn 0.000001 1.000000 -0.000001
vn 0.000003 -1.000000 -0.000004
vn 0.000003 -1.000000 -0.000004
vn 0.000001 1.000000 -0.000001
vn 0.000001 1.000000 -0.000001
vn 0.000001 -1.000000 -0.000004
vn 0.000001 -1.000000 -0.000004
vn 0.000000 1.000000 -0.000001
vn 0.000000 1.000000 -0.000001
vn -0.000000 -1.000000 -0.000004
vn -0.000000 -1.000000 -0.000004
vn 0.000000 1.000000 -0.000001
vn 0.000000 1.000000 -0.000001
vn -0.000002 -1.000000 -0.000004
vn -0.000002 -1.000000 -0.000004
vn 0.000000 1.000000 -0.000000
vn 0.000000 1.000000 -0.000000
vn -0.000003 -1.000000 -0.000004
vn -0.000003 -1.000000 -0.000004
vn 0.000000 1.000000 0.000000
vn 0.000000 1.000000 0.000000
vn -0.000005 -1.000000 -0.000003
vn -0.000005 -1.000000 -0.000003
vn 0.000000 1.000000 0.000000
vn 0.000000 1.000000 0.000000
vn -0.000006 -1.000000 -0.000002
vn -0.000006 -1.000000 -0.000002
vn 0.000000 1.000000 0.000000
vn 0.000000 1.000000 0.000000
vn -0.000006 -1.000000 -0.000000
vn -0.000006 -1.000000 -0.000000
vn -0.000000 1.000000 0.000000
vn -0.000000 1.000000 0.000000
vn -0.000006 -1.000000 0.000002
vn -0.000006 -1.000000 0.000002
vn -0.000000 1.000000 0.000000
vn -0.000000 1.000000 0.000000
vn -0.000005 -1.000000 0.000003
vn -0.000005 -1.000000 0.000003
vn -0.000000 1.000000 0.000000
vn -0.000000 1.000000 0.000000
vn -0.000003 -1.000000 0.000005
vn -0.000003 -1.000000 0.000005
vn -0.000000 1.000000 0.000000
vn -0.000000 1.000000 0.000000
vn -0.000002 -1.000000 0.000005
vn -0.000002 -1.000000 0.000005
vn -0.000000 1.000000 0.000000
vn -0.000000 1.000000 0.000000
vn -0.000000 -1.000000 0.000005
vn -0.000000 -1.000000 0.000005
vn 0.000000 1.000000 0.000000
vn 0.000000 1.000000 0.000000
vn 0.000002 -1.000000 0.000005
vn 0.000002 -1.000000 0.000005
vn 0.000000 1.000000 0.000000
vn 0.000000 1.000000 0.000000
vn 0.000003 -1.000000 0.000005
vn 0.000003 -1.000000 0.000005
vn 0.000000 1.000000 0.000000
vn 0.000000 1.000000 0.000000
vn 0.000005 -1.000000 0.000003
vn 0.000005 -1.000000 0.000003
vn 0.000000 1.000000 0.000000
vn 0.000000 1.000000 0.000000
vn 0.000006 -1.000000 0.000002
vn 0.000006 -1.000000 0.000002
vn 0.000000 1.000000 0.000000
vn 0.000000 1.000000 0.000000
vn 0.000005 -1.000000 0.000000
vn 0.000005 -1.000000 0.000000
vn 0.000000 1.000000 -0.000000
vn 0.000000 1.000000 -0.000000
vn -0.891007 0.000000 0.453991
vn -0.891007 0.000000 0.453991
vn -0.891007 0.000000 0.453991
vn -0.891007 0.000000 0.453991
vn -0.987689 0.000000 0.156432
vn -0.987689 0.000000 0.156432
vn -0.987689 0.000000 0.156432
vn -0.987689 0.000000 0.156432
vn -0.987688 0.000000 -0.156434
vn -0.987688 0.000000 -0.156434
vn -0.987688 0.000000 -0.156434
vn -0.987688 0.000000 -0.156434
vn -0.891006 0.000000 -0.453991
vn -0.891006 0.000000 -0.453991
vn -0.891006 0.000000 -0.453991
vn -0.891006 0.000000 -0.453991
vn -0.707107 0.000000 -0.707107
vn -0.707107 0.000000 -0.707107
vn -0.707107 0.000000 -0.707107
vn -0.707107 0.000000 -0.707107
vn -0.453991 0.000000 -0.891007
vn -0.453991 0.000000 -0.891007
vn -0.453991 0.000000 -0.891007
vn -0.453991 0.000000 -0.891007
vn -0.156435 0.000000 -0.987688
vn -0.156435 0.000000 -0.987688
vn -0.156435 0.000000 -0.987688
vn -0.156435 0.000000 -0.987688
vn 0.156435 0.000000 -0.987688
vn 0.156435 0.000000 -0.987688
vn 0.156435 0.000000 -0.987688
vn 0.156435 0.000000 -0.987688
vn 0.453990 0.000000 -0.891007
vn 0.453990 0.000000 -0.891007
vn 0.453990 0.000000 -0.891007
vn 0.453990 0.000000 -0.891007
vn 0.707107 0.000000 -0.707107
vn 0.707107 0.000000 -0.707107
vn 0.707107 0.000000 -0.707107
vn 0.707107 0.000000 -0.707107
vn 0.891006 0.000000 -0.453991
vn 0.891006 0.000000 -0.453991
vn 0.891006 0.000000 -0.453991
vn 0.891006 0.000000 -0.453991
vn 0.987688 0.000000 -0.156434
vn 0.987688 0.000000 -0.156434
vn 0.987688 0.000000 -0.156434
vn 0.987688 0.000000 -0.156434
vn 0.987688 0.000000 0.156434
vn 0.987688 0.000000 0.156434
vn 0.987688 0.000000 0.156434
vn 0.987688 0.000000 0.156434
vn 0.891007 0.000000 0.453990
vn 0.891007 0.000000 0.453990
vn 0.891007 0.000000 0.453990
vn 0.891007 0.000000 0.453990
vn 0.707107 0.000000 0.707107
vn 0.707107 0.000000 0.707107
vn 0.707107 0.000000 0.707107
vn 0.707107 0.000000 0.707107
vn 0.453991 0.000000 0.891007
vn 0.453991 0.000000 0.891007
vn 0.453991 0.000000 0.891007
vn 0.453991 0.000000 0.891007
vn 0.156435 0.000000 0.987688
vn 0.156435 0.000000 0.987688
vn 0.156435 0.000000 0.987688
vn 0.156435 0.000000 0.987688
vn -0.156434 0.000000 0.987688
vn -0.156434 0.000000 0.987688
vn -0.156434 0.000000 0.987688
vn -0.156434 0.000000 0.987688
vn -0.453990 0.000000 0.891007
vn -0.453990 0.000000 0.891007
vn -0.453990 0.000000 0.891007
vn -0.453990 0.000000 0.891007
vn -0.707107 0.000000 0.707107
vn -0.707107 0.000000 0.707107
vn -0.707107 0.000000 0.707107
vn -0.707107 0.000000 0.707107
s 1
g pCylinder1
usemtl initialShadingGroup
f 41/5/1 42/1/2 117/11/3 118/13/4
f 42/1/2 41/5/1 44/6/5 43/2/6
f 43/2/6 44/6/5 50/14/7 49/7/8
s 2
f 45/9/9 46/3/10 52/8/11 51/15/12
f 46/3/10 45/9/9 48/10/13 47/4/14
f 47/4/14 48/10/13 119/16/15 120/12/16
s 1
f 49/132/8 50/131/7 54/126/17 53/129/18
s 2
f 51/140/12 52/147/11 56/148/19 55/144/20
s 1
f 53/129/18 54/126/17 58/121/21 57/124/22
s 2
f 55/144/20 56/148/19 60/153/23 59/150/24
s 1
f 57/124/22 58/121/21 62/115/25 61/118/26
s 2
f 59/150/24 60/153/23 64/160/27 63/155/28
s 1
f 61/118/26 62/115/25 66/111/29 65/119/30
s 2
f 63/155/28 64/160/27 68/166/31 67/162/32
s 1
f 65/37/30 66/39/29 70/31/33 69/27/34
s 2
f 67/44/32 68/38/31 72/30/35 71/35/36
s 1
f 69/27/34 70/31/33 74/32/37 73/28/38
s 2
f 71/35/36 72/30/35 76/29/39 75/36/40
s 1
f 73/28/38 74/32/37 78/40/41 77/33/42
s 2
f 75/36/40 76/29/39 80/34/43 79/43/44
s 1
f 77/33/42 78/40/41 82/45/45 81/41/46
s 2
f 79/43/44 80/34/43 84/42/47 83/48/48
s 1
f 81/41/46 82/45/45 86/49/49 85/46/50
s 2
f 83/48/48 84/42/47 88/47/51 87/52/52
s 1
f 85/81/50 86/82/49 90/83/53 89/84/54
s 2
f 87/180/52 88/184/51 92/181/55 91/175/56
s 1
f 89/84/54 90/83/53 94/87/57 93/88/58
s 2
f 91/175/56 92/181/55 96/176/59 95/170/60
s 1
f 93/88/58 94/87/57 98/92/61 97/93/62
s 2
f 95/170/60 96/176/59 100/171/63 99/164/64
s 1
f 97/93/62 98/92/61 102/97/65 101/98/66
s 2
f 99/164/64 100/171/63 104/165/67 103/157/68
s 1
f 101/98/66 102/97/65 106/102/69 105/103/70
s 2
f 103/157/68 104/165/67 108/158/71 107/152/72
s 1
f 105/103/70 106/102/69 110/107/73 109/108/74
s 2
f 107/152/72 108/158/71 112/159/75 111/146/76
s 1
f 109/21/74 110/23/73 114/19/77 113/17/78
s 2
f 111/24/76 112/22/75 116/18/79 115/20/80
s 1
f 113/17/78 114/19/77 118/13/4 117/11/3
s 2
f 115/20/80 116/18/79 120/12/16 119/16/15
s 3
f 42/1/81 43/2/82 46/3/83 47/4/84
f 43/2/82 49/7/85 52/8/86 46/3/83
f 49/185/85 53/186/87 56/187/88 52/188/86
f 53/186/87 57/189/89 60/190/90 56/187/88
f 57/189/89 61/191/91 64/192/92 60/190/90
f 61/191/91 65/193/93 68/194/94 64/192/92
f 65/37/93 69/27/95 72/30/96 68/38/94
f 69/27/95 73/28/97 76/29/98 72/30/96
f 73/28/97 77/33/99 80/34/100 76/29/98
f 77/33/99 81/41/101 84/42/102 80/34/100
f 81/41/101 85/46/103 88/47/104 84/42/102
f 85/46/103 89/50/105 92/51/106 88/47/104
f 89/195/105 93/196/107 96/197/108 92/198/106
f 93/196/107 97/199/109 100/200/110 96/197/108
f 97/199/109 101/201/111 104/202/112 100/200/110
f 101/201/111 105/203/113 108/204/114 104/202/112
f 105/25/113 109/21/115 112/22/116 108/26/114
f 109/21/115 113/17/117 116/18/118 112/22/116
f 113/17/117 117/11/119 120/12/120 116/18/118
f 117/11/119 42/1/81 47/4/84 120/12/120
s 4
f 1/122/121 2/127/122 44/128/123 41/123/124
s 5
f 22/133/125 21/134/126 48/135/127 45/136/128
s 4
f 2/127/122 3/130/129 50/131/130 44/128/123
s 5
f 23/139/131 22/133/125 45/136/128 51/140/132
s 4
f 3/130/129 4/125/133 54/126/134 50/131/130
s 5
f 24/143/135 23/139/131 51/140/132 55/144/136
s 4
f 4/125/133 5/120/137 58/121/138 54/126/134
s 5
f 25/149/139 24/143/135 55/144/136 59/150/140
s 4
f 5/120/137 6/114/141 62/115/142 58/121/138
s 5
f 26/154/143 25/149/139 59/150/140 63/155/144
s 4
f 6/114/141 7/110/145 66/111/146 62/115/142
s 5
f 27/161/147 26/154/143 63/155/144 67/162/148
s 4
f 7/110/145 8/105/149 70/106/150 66/111/146
s 5
f 28/167/151 27/161/147 67/162/148 71/168/152
s 4
f 8/105/149 9/100/153 74/101/154 70/106/150
s 5
f 29/172/155 28/167/151 71/168/152 75/173/156
s 4
f 9/100/153 10/95/157 78/96/158 74/101/154
s 5
f 30/177/159 29/172/155 75/173/156 79/178/160
s 4
f 10/95/157 11/90/161 82/91/162 78/96/158
s 5
f 31/182/163 30/177/159 79/178/160 83/183/164
s 4
f 11/90/161 12/85/165 86/82/166 82/91/162
s 5
f 32/179/167 31/182/163 83/183/164 87/180/168
s 4
f 12/85/165 13/86/169 90/83/170 86/82/166
s 5
f 33/174/171 32/179/167 87/180/168 91/175/172
s 4
f 13/86/169 14/89/173 94/87/174 90/83/170
s 5
f 34/169/175 33/174/171 91/175/172 95/170/176
s 4
f 14/89/173 15/94/177 98/92/178 94/87/174
s 5
f 35/163/179 34/169/175 95/170/176 99/164/180
s 4
f 15/94/177 16/99/181 102/97/182 98/92/178
s 5
f 36/156/183 35/163/179 99/164/180 103/157/184
s 4
f 16/99/181 17/104/185 106/102/186 102/97/182
s 5
f 37/151/187 36/156/183 103/157/184 107/152/188
s 4
f 17/104/185 18/109/189 110/107/190 106/102/186
s 5
f 38/145/191 37/151/187 107/152/188 111/146/192
s 4
f 18/109/189 19/112/193 114/113/194 110/107/190
s 5
f 39/141/195 38/145/191 111/146/192 115/142/196
s 4
f 19/112/193 20/116/197 118/117/198 114/113/194
s 5
f 40/137/199 39/141/195 115/142/196 119/138/200
s 4
f 20/116/197 1/122/121 41/123/124 118/117/198
s 5
f 21/134/126 40/137/199 119/138/200 48/135/127
s off
f 2/53/201 1/54/202 21/55/203 22/56/204
f 1/54/205 20/57/206 40/58/207 21/55/208
f 20/57/209 19/61/210 39/62/211 40/58/212
f 19/61/213 18/63/214 38/64/215 39/62/216
f 18/63/217 17/65/218 37/66/219 38/64/220
f 17/205/221 16/206/222 36/207/223 37/208/224
f 16/206/225 15/209/226 35/210/227 36/207/228
f 15/209/229 14/211/230 34/212/231 35/210/232
f 14/211/233 13/213/234 33/214/235 34/212/236
f 13/73/237 12/67/238 32/70/239 33/74/240
f 12/67/241 11/68/242 31/69/243 32/70/244
f 11/68/245 10/71/246 30/72/247 31/69/248
f 10/71/249 9/75/250 29/76/251 30/72/252
f 9/75/253 8/77/254 28/78/255 29/76/256
f 8/77/257 7/79/258 27/80/259 28/78/260
f 7/215/261 6/216/262 26/217/263 27/218/264
f 6/216/265 5/219/266 25/220/267 26/217/268
f 5/219/269 4/221/270 24/222/271 25/220/272
f 4/221/273 3/223/274 23/224/275 24/222/276
f 3/59/277 2/53/278 22/56/279 23/60/280
