# This file uses centimeters as units for non-parametric coordinates.

mtllib Teleporter.mtl
g default
v 1.120929 -0.087305 -0.364212
v 0.953520 -0.087305 -0.692772
v 0.692772 -0.087305 -0.953520
v 0.364212 -0.087305 -1.120929
v 0.000000 -0.087305 -1.000000
v -0.364212 -0.087305 -1.120929
v -0.692772 -0.087305 -0.953519
v -0.953519 -0.087305 -0.692772
v -1.120929 -0.087305 -0.364212
v -1.000000 -0.087305 0.000000
v -1.120929 -0.087305 0.364212
v -0.953519 -0.087305 0.692772
v -0.692772 -0.087305 0.953519
v -0.364212 -0.087305 1.120929
v -0.000000 -0.087305 1.000000
v 0.364212 -0.087305 1.120929
v 0.692772 -0.087305 0.953519
v 0.953519 -0.087305 0.692772
v 1.120929 -0.087305 0.364212
v 1.000000 -0.087305 0.000000
v 0.922390 0.081489 -0.299702
v 0.784627 0.081489 -0.570066
v 0.570066 0.081489 -0.784628
v 0.299702 0.081489 -0.922390
v -0.000000 0.081489 -0.822878
v -0.299702 0.081489 -0.922390
v -0.570066 0.081489 -0.784628
v -0.784628 0.081489 -0.570066
v -0.922390 0.081489 -0.299702
v -0.822878 0.081489 -0.000000
v -0.922390 0.081489 0.299702
v -0.784628 0.081489 0.570066
v -0.570066 0.081489 0.784627
v -0.299702 0.081489 0.922390
v -0.000000 0.081489 0.822877
v 0.299702 0.081489 0.922390
v 0.570066 0.081489 0.784627
v 0.784627 0.081489 0.570066
v 0.922390 0.081489 0.299702
v 0.822877 0.081489 -0.000000
v 0.000000 -0.087305 0.000000
v -0.000000 0.003379 -0.000000
vt 0.553850 0.145057
vt 0.553850 0.065293
vt 0.727602 0.095082
vt 0.727602 0.160718
vt 0.553850 0.001992
vt 0.727602 0.042994
vt 0.553850 0.233476
vt 0.727602 0.233476
vt 0.553850 0.321895
vt 0.727602 0.306234
vt 0.553850 0.401659
vt 0.727602 0.371870
vt 0.553850 0.464961
vt 0.727602 0.423959
vt 0.735207 0.401659
vt 0.735207 0.321895
vt 0.908960 0.306234
vt 0.908960 0.371870
vt 0.735207 0.233476
vt 0.908960 0.233476
vt 0.735207 0.464960
vt 0.908960 0.423959
vt 0.735207 0.145057
vt 0.908960 0.160718
vt 0.735207 0.065293
vt 0.908960 0.095082
vt 0.735207 0.001992
vt 0.908960 0.042994
vt 0.105894 0.042634
vt 0.185658 0.001992
vt 0.274077 0.274118
vt 0.274077 0.031350
vt 0.042593 0.105935
vt 0.362496 0.001992
vt 0.001951 0.185699
vt 0.442260 0.042634
vt 0.031309 0.274118
vt 0.505561 0.105935
vt 0.001951 0.362537
vt 0.546203 0.185699
vt 0.042593 0.442301
vt 0.516846 0.274118
vt 0.105894 0.505602
vt 0.546203 0.362537
vt 0.185658 0.546244
vt 0.505561 0.442301
vt 0.274077 0.516886
vt 0.442260 0.505602
vt 0.362496 0.546244
vt 0.977562 0.846839
vt 0.944117 0.912475
vt 0.753635 0.774081
vt 0.892029 0.964564
vt 0.953403 0.774081
vt 0.826393 0.998008
vt 0.977562 0.701323
vt 0.753635 0.973849
vt 0.944117 0.635687
vt 0.680876 0.998008
vt 0.892029 0.583598
vt 0.615241 0.964564
vt 0.826393 0.550154
vt 0.563152 0.912475
vt 0.753635 0.574312
vt 0.529707 0.846839
vt 0.680876 0.550154
vt 0.553866 0.774081
vt 0.615241 0.583598
vt 0.529707 0.701323
vt 0.563152 0.635687
vt 0.523698 0.550154
vt 0.523698 0.629918
vt 0.349946 0.645579
vt 0.349946 0.579943
vt 0.523698 0.718337
vt 0.349946 0.718337
vt 0.523698 0.806756
vt 0.349946 0.791095
vt 0.523698 0.886520
vt 0.349946 0.856731
vt 0.170184 0.886520
vt 0.170184 0.806756
vt 0.343936 0.791095
vt 0.343936 0.856731
vt 0.170184 0.718337
vt 0.343936 0.718337
vt 0.170184 0.629918
vt 0.343936 0.645579
vt 0.170184 0.550154
vt 0.343936 0.579943
vn 0.636549 0.769347 -0.053944
vn 0.508662 0.777613 -0.369568
vn 0.508662 0.777613 -0.369568
vn 0.641091 0.766748 -0.033162
vn 0.369567 0.777613 -0.508663
vn 0.369568 0.777613 -0.508663
vn 0.053944 0.769347 -0.636549
vn 0.033162 0.766747 -0.641092
vn -0.000000 0.723919 -0.689885
vn 0.000000 0.723919 -0.689885
vn -0.053944 0.769347 -0.636550
vn -0.033162 0.766747 -0.641092
vn -0.369568 0.777613 -0.508663
vn -0.369568 0.777613 -0.508663
vn -0.508663 0.777613 -0.369568
vn -0.508663 0.777613 -0.369568
vn -0.636550 0.769347 -0.053944
vn -0.641092 0.766747 -0.033162
vn -0.689885 0.723919 0.000000
vn -0.689885 0.723919 0.000000
vn -0.636549 0.769347 0.053944
vn -0.641092 0.766747 0.033162
vn -0.508663 0.777613 0.369568
vn -0.508663 0.777613 0.369568
vn -0.369568 0.777613 0.508663
vn -0.369568 0.777613 0.508663
vn -0.053944 0.769347 0.636549
vn -0.033162 0.766748 0.641092
vn 0.000000 0.723919 0.689885
vn 0.000000 0.723919 0.689885
vn 0.053944 0.769347 0.636549
vn 0.033162 0.766747 0.641092
vn 0.369568 0.777613 0.508663
vn 0.369568 0.777613 0.508663
vn 0.508663 0.777613 0.369568
vn 0.508663 0.777613 0.369568
vn 0.636550 0.769347 0.053944
vn 0.641092 0.766747 0.033162
vn 0.689885 0.723919 0.000001
vn 0.689885 0.723919 0.000001
vn 0.000000 -1.000000 0.000000
vn 0.000000 -1.000000 0.000000
vn 0.000000 -1.000000 -0.000000
vn 0.000000 -1.000000 -0.000000
vn 0.000000 -1.000000 -0.000000
vn 0.000000 -1.000000 0.000000
vn 0.000000 -1.000000 0.000000
vn 0.000000 -1.000000 0.000000
vn 0.000000 -1.000000 0.000000
vn 0.000000 -1.000000 0.000000
vn 0.000000 -1.000000 0.000000
vn 0.000000 -1.000000 0.000000
vn 0.000000 -1.000000 0.000000
vn 0.000000 -1.000000 -0.000000
vn 0.000000 -1.000000 -0.000000
vn 0.000000 -1.000000 0.000000
vn 0.000000 -1.000000 0.000000
vn 0.000000 -1.000000 -0.000000
vn 0.000000 -1.000000 -0.000000
vn 0.000000 -1.000000 0.000000
vn 0.000000 -1.000000 0.000000
vn -0.080575 0.996679 0.011776
vn -0.064946 0.996772 0.047187
vn -0.000000 1.000000 0.000000
vn -0.047187 0.996772 0.064946
vn -0.011775 0.996679 0.080575
vn 0.000000 0.995525 0.094499
vn 0.011775 0.996679 0.080575
vn 0.047187 0.996772 0.064946
vn 0.064946 0.996772 0.047187
vn 0.080575 0.996679 0.011776
vn 0.094499 0.995525 0.000000
vn 0.080575 0.996679 -0.011776
vn 0.064946 0.996772 -0.047187
vn 0.047187 0.996772 -0.064946
vn 0.011775 0.996679 -0.080575
vn 0.000000 0.995525 -0.094499
vn -0.011775 0.996679 -0.080575
vn -0.047187 0.996772 -0.064946
vn -0.064946 0.996772 -0.047187
vn -0.080575 0.996679 -0.011776
vn -0.094499 0.995525 -0.000000
s 1
g pCylinder2
usemtl lambert2SG
f 1/1/1 2/2/2 22/3/3 21/4/4
f 2/2/2 3/5/5 23/6/6 22/3/3
f 3/71/5 4/72/7 24/73/8 23/74/6
f 4/72/7 5/75/9 25/76/10 24/73/8
f 5/75/9 6/77/11 26/78/12 25/76/10
f 6/77/11 7/79/13 27/80/14 26/78/12
f 7/21/13 8/15/15 28/18/16 27/22/14
f 8/15/15 9/16/17 29/17/18 28/18/16
f 9/16/17 10/19/19 30/20/20 29/17/18
f 10/19/19 11/23/21 31/24/22 30/20/20
f 11/23/21 12/25/23 32/26/24 31/24/22
f 12/25/23 13/27/25 33/28/26 32/26/24
f 13/81/25 14/82/27 34/83/28 33/84/26
f 14/82/27 15/85/29 35/86/30 34/83/28
f 15/85/29 16/87/31 36/88/32 35/86/30
f 16/87/31 17/89/33 37/90/34 36/88/32
f 17/13/33 18/11/35 38/12/36 37/14/34
f 18/11/35 19/9/37 39/10/38 38/12/36
f 19/9/37 20/7/39 40/8/40 39/10/38
f 20/7/39 1/1/1 21/4/4 40/8/40
s 2
f 2/29/41 1/30/42 41/31/43
f 3/33/44 2/29/41 41/31/43
f 4/35/45 3/33/44 41/31/43
f 5/37/46 4/35/45 41/31/43
f 6/39/47 5/37/46 41/31/43
f 7/41/48 6/39/47 41/31/43
f 8/43/49 7/41/48 41/31/43
f 9/45/50 8/43/49 41/31/43
f 10/47/51 9/45/50 41/31/43
f 11/49/52 10/47/51 41/31/43
f 12/48/53 11/49/52 41/31/43
f 13/46/54 12/48/53 41/31/43
f 14/44/55 13/46/54 41/31/43
f 15/42/56 14/44/55 41/31/43
f 16/40/57 15/42/56 41/31/43
f 17/38/58 16/40/57 41/31/43
f 18/36/59 17/38/58 41/31/43
f 19/34/60 18/36/59 41/31/43
f 20/32/61 19/34/60 41/31/43
f 1/30/42 20/32/61 41/31/43
s 3
f 21/50/62 22/51/63 42/52/64
f 22/51/63 23/53/65 42/52/64
f 23/53/65 24/55/66 42/52/64
f 24/55/66 25/57/67 42/52/64
f 25/57/67 26/59/68 42/52/64
f 26/59/68 27/61/69 42/52/64
f 27/61/69 28/63/70 42/52/64
f 28/63/70 29/65/71 42/52/64
f 29/65/71 30/67/72 42/52/64
f 30/67/72 31/69/73 42/52/64
f 31/69/73 32/70/74 42/52/64
f 32/70/74 33/68/75 42/52/64
f 33/68/75 34/66/76 42/52/64
f 34/66/76 35/64/77 42/52/64
f 35/64/77 36/62/78 42/52/64
f 36/62/78 37/60/79 42/52/64
f 37/60/79 38/58/80 42/52/64
f 38/58/80 39/56/81 42/52/64
f 39/56/81 40/54/82 42/52/64
f 40/54/82 21/50/62 42/52/64
